<?xml version="1.0" encoding="UTF-8" standalone="no"?>
<svg
   xmlns:dc="http://purl.org/dc/elements/1.1/"
   xmlns:cc="http://creativecommons.org/ns#"
   xmlns:rdf="http://www.w3.org/1999/02/22-rdf-syntax-ns#"
   xmlns:svg="http://www.w3.org/2000/svg"
   xmlns="http://www.w3.org/2000/svg"
   xmlns:sodipodi="http://sodipodi.sourceforge.net/DTD/sodipodi-0.dtd"
   xmlns:inkscape="http://www.inkscape.org/namespaces/inkscape"
   width="131.25073mm"
   height="60.790051mm"
   viewBox="0 0 131.25073 60.790051"
   version="1.1"
   id="svg8"
   inkscape:version="1.0.2 (e86c8708, 2021-01-15)"
   sodipodi:docname="sismis_logo_purple.svg">
  <defs
     id="defs2" />
  <sodipodi:namedview
     id="base"
     pagecolor="#ffffff"
     bordercolor="#666666"
     borderopacity="1.0"
     inkscape:pageopacity="0.0"
     inkscape:pageshadow="2"
     inkscape:zoom="0.7"
     inkscape:cx="188.56717"
     inkscape:cy="263.06575"
     inkscape:document-units="mm"
     inkscape:current-layer="layer1"
     inkscape:document-rotation="0"
     showgrid="false"
     inkscape:window-width="1252"
     inkscape:window-height="943"
     inkscape:window-x="0"
     inkscape:window-y="25"
     inkscape:window-maximized="0"
     fit-margin-top="0"
     fit-margin-left="0"
     fit-margin-right="0"
     fit-margin-bottom="0" />
  <metadata
     id="metadata5">
    <rdf:RDF>
      <cc:Work
         rdf:about="">
        <dc:format>image/svg+xml</dc:format>
        <dc:type
           rdf:resource="http://purl.org/dc/dcmitype/StillImage" />
        <dc:title></dc:title>
      </cc:Work>
    </rdf:RDF>
  </metadata>
  <g
     inkscape:label="Layer 1"
     inkscape:groupmode="layer"
     id="layer1"
     transform="translate(-33.082341,-27.030345)">
    <text
       xml:space="preserve"
       style="font-size:10.5833px;line-height:1.25;font-family:Arial;-inkscape-font-specification:'Arial, Normal';stroke-width:0.264583"
       x="44.979164"
       y="77.485115"
       id="text835"><tspan
         sodipodi:role="line"
         id="tspan833"
         x="44.979164"
         y="77.485115"
         style="font-style:normal;font-variant:normal;font-weight:normal;font-stretch:normal;font-size:44.0972px;font-family:'Mystery Quest';-inkscape-font-specification:'Mystery Quest, Normal';font-variant-ligatures:normal;font-variant-caps:normal;font-variant-numeric:normal;font-variant-east-asian:normal;fill:#332288;fill-opacity:1;stroke-width:0.264583">Sismis</tspan></text>
    <path
       style="fill:#332288;fill-opacity:1;stroke-width:0.0190687"
       d="m 44.51468,43.072197 c -0.141783,-0.435849 -0.368239,-0.81334 -0.683968,-1.140141 -0.410876,-0.425283 -0.89624,-0.686685 -1.527022,-0.822409 -0.181658,-0.03909 -0.255613,-0.04398 -0.662147,-0.04385 -0.392845,1.35e-4 -0.488789,0.0061 -0.67757,0.04233 -0.530418,0.101722 -1.091546,0.318885 -1.468601,0.56837 -0.191882,0.126959 -0.586651,0.524362 -0.889644,0.895581 -0.136965,0.167803 -0.274718,0.329283 -0.306119,0.35884 l -0.05709,0.05374 -0.01362,-0.07262 c -0.02793,-0.148864 -0.146214,-0.507118 -0.232465,-0.704061 -0.453758,-1.036105 -1.340121,-1.735413 -2.399658,-1.893247 -0.779953,-0.116181 -1.658444,0.07712 -2.399013,0.527877 -0.151296,0.09209 -0.149863,0.109001 -0.01907,-0.225071 0.104043,-0.265748 0.346321,-0.741329 0.548502,-1.07669 0.150334,-0.249356 0.806982,-1.264413 1.160001,-1.793147 0.762598,-1.14218 1.468636,-1.743014 2.549709,-2.169788 1.337781,-0.528111 2.487269,-0.563336 3.841485,-0.117707 0.398429,0.131107 0.806367,0.296238 1.612159,0.652581 0.855691,0.378413 1.056156,0.462016 1.50173,0.626279 0.96741,0.35664 1.886692,0.578171 2.84593,0.685821 0.329525,0.03698 1.601769,0.06225 1.601769,0.03182 0,-0.03943 -0.09915,-0.280564 -0.138524,-0.336877 -0.02252,-0.03222 -0.158079,-0.179413 -0.301217,-0.327083 -0.143142,-0.147667 -0.303817,-0.330517 -0.357058,-0.40633 -0.09122,-0.129902 -0.193105,-0.344279 -0.221996,-0.467134 l -0.01292,-0.05504 0.08205,0.01314 c 0.193413,0.03101 0.564258,0.04518 0.782462,0.02987 0.213787,-0.01497 0.236428,-0.02017 0.262565,-0.0602 0.225141,-0.344792 0.526779,-0.577043 0.915297,-0.704749 0.23458,-0.0771 0.572108,-0.09655 0.816489,-0.04703 0.0857,0.01735 0.166587,0.03551 0.179749,0.04035 0.03756,0.01377 0.42103,-0.283606 0.646006,-0.50096 0.112245,-0.108444 0.208098,-0.190338 0.213015,-0.181987 0.0049,0.0083 0.0249,0.07954 0.04442,0.158197 0.03057,0.123118 0.03551,0.221271 0.03566,0.70554 l 1.91e-4,0.562527 0.05913,0.123945 c 0.03251,0.06817 0.06887,0.147693 0.08078,0.176711 l 0.02164,0.05276 0.167115,-0.08414 c 0.769504,-0.387442 1.660828,-1.283276 2.288461,-2.300093 0.220613,-0.357409 0.353353,-0.604484 0.676145,-1.258534 0.168217,-0.340852 0.471224,-0.954387 0.673343,-1.363411 0.404089,-0.817741 0.595467,-1.162233 0.899236,-1.61868 0.435801,-0.65484 0.827109,-1.079944 1.37361,-1.492253 0.767253,-0.578851 1.569855,-0.914359 2.532081,-1.058474 0.261412,-0.03915 1.207467,-0.03365 1.525496,0.0089 0.94548,0.126417 1.853498,0.404923 3.313202,1.016217 0.338221,0.14164 0.721324,0.301619 0.851343,0.355512 l 0.236396,0.09799 -0.255467,0.05043 c -2.005023,0.39583 -3.160069,2.003699 -2.75132,3.82995 0.06614,0.295524 0.158003,0.554615 0.304088,0.857692 0.06755,0.140139 0.122818,0.257293 0.122818,0.260343 0,0.0029 -0.05792,-0.01878 -0.128713,-0.04852 -0.168594,-0.07082 -0.420085,-0.142992 -0.639075,-0.183404 -0.271781,-0.05015 -0.792566,-0.04525 -1.109347,0.01044 -1.421796,0.249982 -2.663202,1.241534 -3.040619,2.428644 -0.09249,0.290915 -0.122046,0.512673 -0.109891,0.82447 0.01501,0.385377 0.08779,0.660556 0.271397,1.026239 0.04643,0.09248 0.08442,0.171314 0.08442,0.175187 0,0.0039 -0.05782,-0.01918 -0.128493,-0.05122 -0.311501,-0.141241 -0.773766,-0.208311 -1.178877,-0.17104 -1.140393,0.104919 -2.166832,0.714276 -2.553263,1.515779 -0.109514,0.227144 -0.143365,0.358229 -0.157032,0.608076 -0.01278,0.233708 0.01216,0.425426 0.08206,0.631068 0.05281,0.155351 0.173255,0.398901 0.258641,0.523004 0.03167,0.04604 0.05334,0.08796 0.04815,0.09316 -0.0179,0.01794 -0.175254,-0.03529 -0.356212,-0.120493 -0.268607,-0.126457 -0.348633,-0.155626 -0.488029,-0.177897 -0.244974,-0.03913 -0.604652,0.04674 -0.970116,0.23161 -0.300803,0.152163 -0.694311,0.426181 -0.735697,0.512303 -0.06107,0.127069 -0.09846,0.280114 -0.134267,0.549537 -0.04903,0.368963 -0.08559,0.471059 -0.20812,0.581228 -0.17332,0.155824 -0.418646,0.188782 -0.631112,0.08478 -0.05679,-0.02779 -0.162424,-0.100291 -0.234737,-0.161092 -0.315792,-0.265531 -0.410521,-0.335712 -0.539984,-0.400058 -0.124389,-0.06183 -0.147184,-0.06711 -0.238358,-0.05522 -0.262193,0.0342 -0.739282,0.242092 -0.997048,0.434495 -0.200666,0.149786 -0.444779,0.404769 -0.577567,0.603283 -0.06514,0.09739 -0.118439,0.185095 -0.118439,0.194892 0,0.0098 -0.0086,0.01783 -0.01908,0.01783 -0.01047,0 -0.01908,-0.02464 -0.01908,-0.05476 0,-0.175671 -0.166441,-0.630402 -0.303831,-0.83009 -0.243593,-0.354052 -0.630335,-0.598074 -1.109651,-0.700158 -0.255452,-0.0544 -0.733248,-0.05931 -1.008239,-0.01036 -1.033242,0.183946 -1.951612,0.80209 -2.284264,1.537516 l -0.05165,0.114196 z"
       id="path1459" />
    <path
       style="fill:#332288;fill-opacity:1;stroke-width:0.0141057"
       d="m 96.690478,48.7956 c 0.104881,-0.322411 0.272398,-0.601653 0.505952,-0.843398 0.303938,-0.314595 0.662977,-0.507962 1.129585,-0.608361 0.134378,-0.02892 0.189085,-0.03253 0.489811,-0.03244 0.2906,1e-4 0.361572,0.0045 0.501219,0.03131 0.392367,0.07525 0.807455,0.235889 1.086365,0.42044 0.14195,0.09392 0.43397,0.387887 0.6581,0.662489 0.10132,0.124129 0.20322,0.243581 0.22645,0.265445 l 0.0422,0.03975 0.0101,-0.05372 c 0.0207,-0.110119 0.10816,-0.375131 0.17196,-0.520815 0.33566,-0.766439 0.99132,-1.283739 1.7751,-1.400494 0.57695,-0.08594 1.2268,0.05705 1.77462,0.390487 0.11191,0.06812 0.11086,0.08063 0.0141,-0.166492 -0.077,-0.196582 -0.25618,-0.548384 -0.40574,-0.79646 -0.11121,-0.184457 -0.59696,-0.935326 -0.85809,-1.326447 -0.56412,-0.844905 -1.0864,-1.289361 -1.8861,-1.605059 -0.9896,-0.39066 -1.83991,-0.416717 -2.841662,-0.08707 -0.294731,0.09698 -0.596495,0.219136 -1.192564,0.482734 -0.632981,0.279924 -0.781271,0.341768 -1.110876,0.463278 -0.715623,0.263818 -1.395644,0.427691 -2.105222,0.507323 -0.24376,0.02736 -1.184878,0.04605 -1.184878,0.02354 0,-0.02917 0.07334,-0.207542 0.10247,-0.249198 0.01666,-0.02383 0.116936,-0.132717 0.22282,-0.241953 0.105886,-0.109234 0.224743,-0.244494 0.264127,-0.300575 0.06748,-0.09609 0.142845,-0.254674 0.164217,-0.345554 l 0.0096,-0.04071 -0.06069,0.0097 c -0.143073,0.02294 -0.417399,0.03342 -0.578811,0.0221 -0.158145,-0.01107 -0.174893,-0.01492 -0.194227,-0.04453 -0.166544,-0.255054 -0.389675,-0.426857 -0.677074,-0.521325 -0.173526,-0.05703 -0.423206,-0.07142 -0.603982,-0.03479 -0.06339,0.01283 -0.123229,0.02627 -0.132966,0.02985 -0.02778,0.01019 -0.311449,-0.209793 -0.47787,-0.370576 -0.08303,-0.08022 -0.153937,-0.140799 -0.157574,-0.134621 -0.0036,0.0061 -0.01842,0.05884 -0.03286,0.117023 -0.02261,0.09107 -0.02627,0.163681 -0.02638,0.521909 l -1.41e-4,0.416119 -0.04374,0.09169 c -0.02405,0.05043 -0.05095,0.109253 -0.05976,0.130719 l -0.01601,0.03903 -0.12362,-0.06224 c -0.569225,-0.286603 -1.228565,-0.949279 -1.692845,-1.70145 -0.163194,-0.264386 -0.261386,-0.447155 -0.500165,-0.930976 -0.124435,-0.252139 -0.348579,-0.70599 -0.498093,-1.008557 -0.298917,-0.604909 -0.440485,-0.85974 -0.665192,-1.197388 -0.322376,-0.484405 -0.611838,-0.798868 -1.016102,-1.103866 -0.567561,-0.428194 -1.16127,-0.676379 -1.873058,-0.782985 -0.193375,-0.02896 -0.893201,-0.02489 -1.128457,0.0066 -0.699401,0.09352 -1.371092,0.299534 -2.450877,0.751727 -0.250192,0.104776 -0.533582,0.223117 -0.629762,0.262983 l -0.174873,0.07249 0.188979,0.0373 c 1.483176,0.292808 2.337599,1.482198 2.035237,2.833132 -0.0489,0.218609 -0.116885,0.410266 -0.224945,0.634462 -0.04993,0.103665 -0.09085,0.190327 -0.09085,0.192583 0,0.0021 0.04283,-0.01389 0.09521,-0.03589 0.124719,-0.05239 0.310753,-0.105776 0.472746,-0.13567 0.201045,-0.0371 0.586286,-0.03347 0.820619,0.0077 1.051746,0.184919 1.970052,0.918401 2.249239,1.796543 0.06842,0.215198 0.09028,0.37924 0.08129,0.609886 -0.0111,0.285075 -0.06494,0.488633 -0.200761,0.75914 -0.03435,0.06841 -0.06245,0.126726 -0.06245,0.129591 0,0.0029 0.04277,-0.01419 0.09505,-0.03789 0.230427,-0.10448 0.572379,-0.154094 0.872052,-0.126523 0.843584,0.07761 1.602873,0.528372 1.888727,1.121268 0.08101,0.168026 0.106052,0.264993 0.116162,0.449813 0.0095,0.172881 -0.009,0.314701 -0.0607,0.46682 -0.03907,0.114918 -0.128163,0.29508 -0.191325,0.386883 -0.02343,0.03406 -0.03946,0.06507 -0.03562,0.06891 0.01324,0.01327 0.129641,-0.02611 0.263501,-0.08913 0.198697,-0.09354 0.257894,-0.115121 0.36101,-0.131595 0.181215,-0.02895 0.44728,0.03457 0.717625,0.171329 0.222513,0.112559 0.513603,0.315259 0.544217,0.378966 0.04518,0.094 0.07283,0.207209 0.09932,0.406509 0.03627,0.272934 0.06331,0.348457 0.153953,0.429953 0.12821,0.115268 0.309685,0.139648 0.466853,0.06271 0.04201,-0.02056 0.12015,-0.07419 0.173642,-0.119165 0.233601,-0.196421 0.303675,-0.248336 0.399443,-0.295935 0.09201,-0.04574 0.108876,-0.04964 0.17632,-0.04085 0.193953,0.0253 0.54687,0.179083 0.737548,0.32141 0.148438,0.110801 0.329016,0.29942 0.427244,0.446267 0.04819,0.07204 0.08761,0.13692 0.08761,0.144167 0,0.0072 0.0064,0.01319 0.01411,0.01319 0.0077,0 0.01411,-0.01823 0.01411,-0.04051 0,-0.129949 0.123121,-0.466328 0.224753,-0.614043 0.180193,-0.261903 0.466278,-0.442414 0.820843,-0.517929 0.188966,-0.04024 0.542406,-0.04387 0.745825,-0.0077 0.764321,0.13607 1.443668,0.59333 1.689741,1.137348 l 0.03821,0.08447 z"
       id="path1459-1" />
    <path
       style="fill:#332288;fill-opacity:1;stroke-width:0.0141057"
       d="m 158.09292,44.549407 c -0.0862,-0.327892 -0.0964,-0.653369 -0.0308,-0.983035 0.0854,-0.429016 0.28274,-0.78589 0.62084,-1.122777 0.0974,-0.09702 0.14142,-0.129656 0.39438,-0.292285 0.24445,-0.157139 0.30652,-0.191836 0.43847,-0.244844 0.37069,-0.148993 0.80669,-0.238472 1.1411,-0.234163 0.17019,0.0022 0.57483,0.09142 0.91189,0.201102 0.15237,0.04958 0.3027,0.0949 0.33406,0.100723 l 0.057,0.0106 -0.0206,-0.05064 c -0.0422,-0.10381 -0.112,-0.374004 -0.13716,-0.531042 -0.13238,-0.82618 0.13916,-1.615963 0.73515,-2.138204 0.43872,-0.384424 1.06261,-0.615758 1.70373,-0.631725 0.13097,-0.0033 0.13685,0.0078 -0.0782,-0.147648 -0.17112,-0.123667 -0.51214,-0.322591 -0.77214,-0.450307 -0.19333,-0.09496 -1.00809,-0.463637 -1.43931,-0.651291 -0.93154,-0.405361 -1.61125,-0.49658 -2.4546,-0.329419 -1.04361,0.206858 -1.77282,0.644989 -2.43695,1.464201 -0.1954,0.241019 -0.3831,0.507019 -0.74178,1.051198 -0.38089,0.577879 -0.47214,0.71012 -0.6836,0.990634 -0.4591,0.609044 -0.94235,1.114779 -1.49601,1.56565 -0.1902,0.154892 -0.97158,0.679786 -0.98376,0.660855 -0.0158,-0.02453 -0.0506,-0.214222 -0.0486,-0.265015 0.001,-0.02905 0.0265,-0.174881 0.0565,-0.324036 0.0299,-0.149154 0.0567,-0.327213 0.0595,-0.395685 0.005,-0.117321 -0.0177,-0.291465 -0.0489,-0.379457 l -0.0136,-0.03965 -0.0458,0.041 c -0.10791,0.0967 -0.33295,0.253931 -0.47483,0.33174 -0.13899,0.07625 -0.15515,0.08207 -0.18744,0.06763 -0.27805,-0.124396 -0.55866,-0.148162 -0.85147,-0.07212 -0.17679,0.04592 -0.39456,0.168904 -0.52678,0.297515 -0.0464,0.04509 -0.0894,0.08876 -0.0957,0.09704 -0.0178,0.0236 -0.37544,-0.0079 -0.60239,-0.05311 -0.11323,-0.02254 -0.20564,-0.03513 -0.20535,-0.02796 2.7e-4,0.0071 0.0163,0.05945 0.0357,0.116195 0.0303,0.08882 0.0665,0.151869 0.26018,0.453199 l 0.22502,0.350034 0.0128,0.100776 c 0.007,0.05542 0.0163,0.119447 0.0205,0.142267 l 0.008,0.04149 -0.13764,0.01454 c -0.63378,0.06694 -1.54682,-0.133653 -2.34424,-0.515041 -0.28029,-0.134056 -0.46175,-0.23464 -0.92433,-0.512348 -0.24107,-0.144726 -0.67512,-0.405147 -0.96456,-0.578715 -0.57867,-0.347006 -0.8356,-0.484727 -1.20726,-0.647116 -0.5332,-0.23297 -0.94678,-0.340826 -1.45178,-0.378611 -0.70899,-0.05304 -1.34258,0.05945 -1.99888,0.354891 -0.1783,0.08027 -0.76465,0.462318 -0.94547,0.616082 -0.5376,0.457048 -0.99103,0.993713 -1.65448,1.958206 -0.15373,0.223478 -0.32803,0.476326 -0.38735,0.56189 l -0.10785,0.155576 0.17911,-0.07087 c 1.40577,-0.556193 2.76785,-0.01818 3.24446,1.281543 0.0772,0.210307 0.12367,0.408273 0.15409,0.655287 0.0141,0.114196 0.0266,0.209218 0.0278,0.211115 10e-4,0.0018 0.0285,-0.03485 0.0606,-0.08169 0.0765,-0.111537 0.20411,-0.257085 0.32418,-0.369869 0.149,-0.139973 0.47496,-0.345348 0.69431,-0.437505 0.98457,-0.413511 2.15371,-0.293483 2.86362,0.293987 0.17397,0.143965 0.2811,0.270098 0.39833,0.468936 0.1449,0.245754 0.20976,0.446076 0.24188,0.747056 0.008,0.07612 0.016,0.140364 0.0176,0.142774 0.002,0.0024 0.0283,-0.03507 0.0594,-0.08329 0.13727,-0.212536 0.39801,-0.439268 0.66495,-0.578213 0.75145,-0.391136 1.6339,-0.422843 2.19508,-0.07887 0.15904,0.09748 0.23256,0.165482 0.34106,0.315446 0.10152,0.140254 0.16269,0.269534 0.20151,0.425438 0.0293,0.117784 0.0519,0.317503 0.0484,0.428882 -0.001,0.04132 0.002,0.07607 0.007,0.07722 0.0183,0.004 0.0949,-0.0921 0.17339,-0.217521 0.11649,-0.186168 0.1546,-0.236346 0.23241,-0.305989 0.13674,-0.12239 0.39487,-0.212919 0.69623,-0.24417 0.24803,-0.02572 0.6025,-0.01274 0.66272,0.02427 0.0889,0.05461 0.17336,0.13486 0.30346,0.28814 0.17817,0.209915 0.24177,0.2588 0.3621,0.278298 0.17019,0.02757 0.336,-0.05011 0.42655,-0.199843 0.0242,-0.04002 0.0609,-0.127399 0.0816,-0.194164 0.0902,-0.291576 0.12104,-0.373149 0.17583,-0.464993 0.0526,-0.08825 0.0647,-0.100653 0.12618,-0.12975 0.1768,-0.08366 0.55681,-0.145264 0.79417,-0.12873 0.18479,0.01287 0.4387,0.07381 0.60076,0.144159 0.0795,0.03451 0.14776,0.06775 0.15168,0.07384 0.004,0.0061 0.0125,0.0076 0.019,0.0035 0.006,-0.0042 0.002,-0.02296 -0.01,-0.0417 -0.0703,-0.109287 -0.14875,-0.458795 -0.1432,-0.63801 0.01,-0.317751 0.15278,-0.624342 0.41012,-0.879684 0.13715,-0.136075 0.43243,-0.33035 0.62307,-0.409988 0.71642,-0.299086 1.53514,-0.282079 2.03642,0.04231 l 0.0778,0.05037 z"
       id="path1459-1-6" />
  </g>
</svg>
